<svg xmlns="http://www.w3.org/2000/svg" xmlns:xlink="http://www.w3.org/1999/xlink" width="150" zoomAndPan="magnify" viewBox="0 0 112.5 48" height="64" preserveAspectRatio="xMidYMid meet" version="1.0"><defs><g/><clipPath id="0161e0d2f9"><path d="M 53.4375 16.089844 L 56.230469 16.089844 L 56.230469 29.078125 L 53.4375 29.078125 Z M 53.4375 16.089844 " clip-rule="nonzero"/></clipPath><clipPath id="4a81a7fb0b"><path d="M 54.835938 16.089844 C 55.203125 16.089844 55.558594 16.238281 55.824219 16.5 C 56.085938 16.761719 56.230469 17.117188 56.230469 17.488281 L 56.230469 27.679688 C 56.230469 28.050781 56.085938 28.40625 55.824219 28.667969 C 55.558594 28.929688 55.203125 29.078125 54.835938 29.078125 C 54.464844 29.078125 54.109375 28.929688 53.84375 28.667969 C 53.582031 28.40625 53.4375 28.050781 53.4375 27.679688 L 53.4375 17.488281 C 53.4375 17.117188 53.582031 16.761719 53.84375 16.5 C 54.109375 16.238281 54.464844 16.089844 54.835938 16.089844 Z M 54.835938 16.089844 " clip-rule="nonzero"/></clipPath><clipPath id="d354d1a7a5"><path d="M 58.128906 16.089844 L 61.058594 16.089844 L 61.058594 30.277344 L 58.128906 30.277344 Z M 58.128906 16.089844 " clip-rule="nonzero"/></clipPath><clipPath id="b727751063"><path d="M 59.59375 16.089844 C 59.980469 16.089844 60.351562 16.242188 60.628906 16.519531 C 60.902344 16.792969 61.058594 17.164062 61.058594 17.554688 L 61.058594 28.808594 C 61.058594 29.199219 60.902344 29.570312 60.628906 29.84375 C 60.351562 30.121094 59.980469 30.273438 59.59375 30.273438 C 59.203125 30.273438 58.832031 30.121094 58.554688 29.84375 C 58.28125 29.570312 58.128906 29.199219 58.128906 28.808594 L 58.128906 17.554688 C 58.128906 17.164062 58.28125 16.792969 58.554688 16.519531 C 58.832031 16.242188 59.203125 16.089844 59.59375 16.089844 Z M 59.59375 16.089844 " clip-rule="nonzero"/></clipPath><clipPath id="061bafb456"><path d="M 62.601562 16.089844 L 65.398438 16.089844 L 65.398438 27.886719 L 62.601562 27.886719 Z M 62.601562 16.089844 " clip-rule="nonzero"/></clipPath><clipPath id="a0811416a8"><path d="M 64 16.089844 C 64.371094 16.089844 64.726562 16.238281 64.988281 16.5 C 65.25 16.761719 65.398438 17.117188 65.398438 17.488281 L 65.398438 26.480469 C 65.398438 26.851562 65.25 27.207031 64.988281 27.46875 C 64.726562 27.730469 64.371094 27.878906 64 27.878906 C 63.628906 27.878906 63.273438 27.730469 63.011719 27.46875 C 62.75 27.207031 62.601562 26.851562 62.601562 26.480469 L 62.601562 17.488281 C 62.601562 17.117188 62.75 16.761719 63.011719 16.5 C 63.273438 16.238281 63.628906 16.089844 64 16.089844 Z M 64 16.089844 " clip-rule="nonzero"/></clipPath></defs><g fill="#1e3b8f" fill-opacity="1"><g transform="translate(4.268242, 27.662667)"><g><path d="M 9.59375 -9.875 C 8.925781 -10.28125 8.257812 -10.582031 7.59375 -10.78125 C 6.925781 -10.976562 6.328125 -11.078125 5.796875 -11.078125 C 5.160156 -11.078125 4.648438 -10.957031 4.265625 -10.71875 C 3.878906 -10.476562 3.6875 -10.132812 3.6875 -9.6875 C 3.6875 -9.289062 3.804688 -8.960938 4.046875 -8.703125 C 4.296875 -8.453125 4.609375 -8.25 4.984375 -8.09375 C 5.359375 -7.945312 5.878906 -7.769531 6.546875 -7.5625 C 7.421875 -7.289062 8.128906 -7.023438 8.671875 -6.765625 C 9.222656 -6.515625 9.691406 -6.140625 10.078125 -5.640625 C 10.472656 -5.140625 10.671875 -4.484375 10.671875 -3.671875 C 10.671875 -2.898438 10.460938 -2.226562 10.046875 -1.65625 C 9.640625 -1.082031 9.0625 -0.640625 8.3125 -0.328125 C 7.570312 -0.0234375 6.726562 0.125 5.78125 0.125 C 4.78125 0.125 3.816406 -0.0546875 2.890625 -0.421875 C 1.960938 -0.796875 1.160156 -1.304688 0.484375 -1.953125 L 1.421875 -3.84375 C 2.078125 -3.226562 2.796875 -2.75 3.578125 -2.40625 C 4.367188 -2.070312 5.113281 -1.90625 5.8125 -1.90625 C 6.570312 -1.90625 7.164062 -2.050781 7.59375 -2.34375 C 8.03125 -2.632812 8.25 -3.035156 8.25 -3.546875 C 8.25 -3.953125 8.117188 -4.28125 7.859375 -4.53125 C 7.609375 -4.789062 7.289062 -5 6.90625 -5.15625 C 6.53125 -5.3125 6.015625 -5.488281 5.359375 -5.6875 C 4.460938 -5.945312 3.742188 -6.195312 3.203125 -6.4375 C 2.671875 -6.6875 2.207031 -7.054688 1.8125 -7.546875 C 1.425781 -8.046875 1.234375 -8.695312 1.234375 -9.5 C 1.234375 -10.226562 1.429688 -10.867188 1.828125 -11.421875 C 2.222656 -11.972656 2.78125 -12.398438 3.5 -12.703125 C 4.21875 -13.003906 5.039062 -13.15625 5.96875 -13.15625 C 6.78125 -13.15625 7.582031 -13.03125 8.375 -12.78125 C 9.164062 -12.539062 9.875 -12.210938 10.5 -11.796875 Z M 9.59375 -9.875 "/></g></g></g><g fill="#1e3b8f" fill-opacity="1"><g transform="translate(15.78901, 27.662667)"><g><path d="M 5.796875 -9.9375 C 6.796875 -9.9375 7.6875 -9.722656 8.46875 -9.296875 C 9.25 -8.878906 9.851562 -8.289062 10.28125 -7.53125 C 10.71875 -6.78125 10.9375 -5.921875 10.9375 -4.953125 C 10.9375 -3.960938 10.71875 -3.085938 10.28125 -2.328125 C 9.851562 -1.566406 9.25 -0.972656 8.46875 -0.546875 C 7.6875 -0.128906 6.796875 0.078125 5.796875 0.078125 C 4.785156 0.078125 3.890625 -0.128906 3.109375 -0.546875 C 2.335938 -0.972656 1.734375 -1.566406 1.296875 -2.328125 C 0.867188 -3.085938 0.65625 -3.960938 0.65625 -4.953125 C 0.65625 -5.921875 0.867188 -6.78125 1.296875 -7.53125 C 1.734375 -8.289062 2.335938 -8.878906 3.109375 -9.296875 C 3.890625 -9.722656 4.785156 -9.9375 5.796875 -9.9375 Z M 5.796875 -8.109375 C 4.910156 -8.109375 4.1875 -7.804688 3.625 -7.203125 C 3.0625 -6.609375 2.78125 -5.84375 2.78125 -4.90625 C 2.78125 -3.957031 3.0625 -3.1875 3.625 -2.59375 C 4.1875 -2 4.910156 -1.703125 5.796875 -1.703125 C 6.691406 -1.703125 7.414062 -2 7.96875 -2.59375 C 8.519531 -3.1875 8.796875 -3.957031 8.796875 -4.90625 C 8.796875 -5.84375 8.515625 -6.609375 7.953125 -7.203125 C 7.390625 -7.804688 6.671875 -8.109375 5.796875 -8.109375 Z M 5.796875 -8.109375 "/></g></g></g><g fill="#1e3b8f" fill-opacity="1"><g transform="translate(27.365354, 27.662667)"><g><path d="M 7.34375 -9.9375 C 8.488281 -9.9375 9.382812 -9.597656 10.03125 -8.921875 C 10.675781 -8.242188 11 -7.316406 11 -6.140625 L 11 0 L 8.875 0 L 8.875 -5.546875 C 8.875 -6.285156 8.660156 -6.867188 8.234375 -7.296875 C 7.816406 -7.722656 7.238281 -7.9375 6.5 -7.9375 C 5.707031 -7.914062 5.0625 -7.660156 4.5625 -7.171875 C 4.0625 -6.679688 3.773438 -6.039062 3.703125 -5.25 L 3.703125 0 L 1.578125 0 L 1.578125 -9.859375 L 3.703125 -9.859375 L 3.703125 -7.96875 C 4.367188 -9.28125 5.582031 -9.9375 7.34375 -9.9375 Z M 7.34375 -9.9375 "/></g></g></g><g fill="#1e3b8f" fill-opacity="1"><g transform="translate(39.645538, 27.662667)"><g><path d="M 8.359375 -9.859375 L 10.46875 -9.859375 L 10.46875 -0.96875 C 10.46875 -0.03125 10.253906 0.78125 9.828125 1.46875 C 9.410156 2.164062 8.816406 2.703125 8.046875 3.078125 C 7.273438 3.460938 6.378906 3.65625 5.359375 3.65625 C 3.898438 3.65625 2.535156 3.222656 1.265625 2.359375 L 2.171875 0.8125 C 2.648438 1.175781 3.140625 1.445312 3.640625 1.625 C 4.140625 1.800781 4.679688 1.890625 5.265625 1.890625 C 6.203125 1.890625 6.953125 1.632812 7.515625 1.125 C 8.078125 0.625 8.359375 -0.0507812 8.359375 -0.90625 L 8.359375 -2.15625 C 8.023438 -1.601562 7.582031 -1.1875 7.03125 -0.90625 C 6.476562 -0.625 5.832031 -0.484375 5.09375 -0.484375 C 4.21875 -0.484375 3.441406 -0.679688 2.765625 -1.078125 C 2.097656 -1.484375 1.578125 -2.046875 1.203125 -2.765625 C 0.835938 -3.484375 0.65625 -4.3125 0.65625 -5.25 C 0.65625 -6.175781 0.835938 -6.992188 1.203125 -7.703125 C 1.578125 -8.410156 2.097656 -8.957031 2.765625 -9.34375 C 3.441406 -9.738281 4.21875 -9.9375 5.09375 -9.9375 C 5.820312 -9.9375 6.460938 -9.789062 7.015625 -9.5 C 7.578125 -9.207031 8.023438 -8.796875 8.359375 -8.265625 Z M 5.515625 -2.15625 C 6.347656 -2.15625 7.03125 -2.4375 7.5625 -3 C 8.09375 -3.570312 8.359375 -4.300781 8.359375 -5.1875 C 8.359375 -6.070312 8.09375 -6.796875 7.5625 -7.359375 C 7.039062 -7.921875 6.359375 -8.203125 5.515625 -8.203125 C 4.679688 -8.203125 4 -7.921875 3.46875 -7.359375 C 2.9375 -6.796875 2.664062 -6.070312 2.65625 -5.1875 C 2.664062 -4.300781 2.929688 -3.570312 3.453125 -3 C 3.984375 -2.4375 4.671875 -2.15625 5.515625 -2.15625 Z M 5.515625 -2.15625 "/></g></g></g><g fill="#1e3c91" fill-opacity="1"><g transform="translate(66.626935, 27.898904)"><g><path d="M 5.625 -9.921875 C 7.1875 -9.921875 8.351562 -9.484375 9.125 -8.609375 C 9.894531 -7.734375 10.28125 -6.5 10.28125 -4.90625 C 10.28125 -4.75 10.265625 -4.484375 10.234375 -4.109375 L 2.796875 -4.109375 C 2.972656 -3.347656 3.332031 -2.742188 3.875 -2.296875 C 4.414062 -1.859375 5.070312 -1.640625 5.84375 -1.640625 C 6.375 -1.640625 6.878906 -1.738281 7.359375 -1.9375 C 7.847656 -2.132812 8.269531 -2.421875 8.625 -2.796875 L 9.75 -1.59375 C 9.257812 -1.0625 8.664062 -0.648438 7.96875 -0.359375 C 7.28125 -0.0664062 6.519531 0.078125 5.6875 0.078125 C 4.6875 0.078125 3.804688 -0.128906 3.046875 -0.546875 C 2.285156 -0.972656 1.691406 -1.5625 1.265625 -2.3125 C 0.847656 -3.0625 0.640625 -3.925781 0.640625 -4.90625 C 0.640625 -5.882812 0.847656 -6.75 1.265625 -7.5 C 1.691406 -8.257812 2.285156 -8.851562 3.046875 -9.28125 C 3.804688 -9.707031 4.664062 -9.921875 5.625 -9.921875 Z M 8.390625 -5.671875 C 8.347656 -6.453125 8.078125 -7.070312 7.578125 -7.53125 C 7.085938 -7.988281 6.441406 -8.21875 5.640625 -8.21875 C 4.867188 -8.21875 4.222656 -7.988281 3.703125 -7.53125 C 3.179688 -7.070312 2.867188 -6.453125 2.765625 -5.671875 Z M 8.390625 -5.671875 "/></g></g></g><g fill="#1e3c91" fill-opacity="1"><g transform="translate(77.514981, 27.898904)"><g><path d="M 7.140625 -0.625 C 6.328125 -0.144531 5.519531 0.09375 4.71875 0.09375 C 3.914062 0.09375 3.253906 -0.144531 2.734375 -0.625 C 2.222656 -1.113281 1.96875 -1.832031 1.96875 -2.78125 L 1.96875 -7.890625 L 0.578125 -7.890625 L 0.578125 -9.484375 L 1.96875 -9.484375 L 1.96875 -12.1875 L 4.078125 -12.1875 L 4.078125 -9.484375 L 6.984375 -9.484375 L 6.984375 -7.890625 L 4.078125 -7.890625 L 4.078125 -3.171875 C 4.078125 -2.671875 4.160156 -2.320312 4.328125 -2.125 C 4.503906 -1.925781 4.769531 -1.828125 5.125 -1.828125 C 5.519531 -1.828125 6.015625 -1.972656 6.609375 -2.265625 Z M 7.140625 -0.625 "/></g></g></g><g fill="#1e3c91" fill-opacity="1"><g transform="translate(85.051439, 27.898904)"><g><path d="M 3.703125 -7.890625 C 4.035156 -8.554688 4.488281 -9.0625 5.0625 -9.40625 C 5.644531 -9.75 6.328125 -9.921875 7.109375 -9.921875 L 7.109375 -7.890625 C 6.128906 -7.941406 5.335938 -7.710938 4.734375 -7.203125 C 4.128906 -6.691406 3.785156 -6.003906 3.703125 -5.140625 L 3.703125 0 L 1.578125 0 L 1.578125 -9.84375 L 3.703125 -9.84375 Z M 3.703125 -7.890625 "/></g></g></g><g fill="#1e3c91" fill-opacity="1"><g transform="translate(92.347176, 27.898904)"><g><path d="M 1.578125 0 L 1.578125 -9.84375 L 3.6875 -9.84375 L 3.6875 0 Z M 2.625 -13.953125 C 2.988281 -13.953125 3.285156 -13.832031 3.515625 -13.59375 C 3.753906 -13.351562 3.875 -13.046875 3.875 -12.671875 C 3.875 -12.296875 3.753906 -11.984375 3.515625 -11.734375 C 3.285156 -11.492188 2.988281 -11.375 2.625 -11.375 C 2.269531 -11.375 1.972656 -11.492188 1.734375 -11.734375 C 1.503906 -11.984375 1.390625 -12.296875 1.390625 -12.671875 C 1.390625 -13.046875 1.503906 -13.351562 1.734375 -13.59375 C 1.972656 -13.832031 2.269531 -13.953125 2.625 -13.953125 Z M 2.625 -13.953125 "/></g></g></g><g fill="#1e3c91" fill-opacity="1"><g transform="translate(97.606029, 27.898904)"><g><path d="M 3.734375 -5.0625 L 0.5 -9.84375 L 2.9375 -9.84375 L 5.140625 -6.484375 L 7.390625 -9.84375 L 9.71875 -9.84375 L 6.546875 -5.0625 L 9.9375 0 L 7.5 0 L 5.140625 -3.609375 L 2.625 0 L 0.265625 0 Z M 3.734375 -5.0625 "/></g></g></g><g clip-path="url(#0161e0d2f9)"><g clip-path="url(#4a81a7fb0b)"><path fill="#1e3b8f" d="M 53.4375 16.089844 L 56.230469 16.089844 L 56.230469 29.078125 L 53.4375 29.078125 Z M 53.4375 16.089844 " fill-opacity="1" fill-rule="nonzero"/></g></g><g clip-path="url(#d354d1a7a5)"><g clip-path="url(#b727751063)"><path fill="#1e3b8f" d="M 58.128906 16.089844 L 61.058594 16.089844 L 61.058594 30.277344 L 58.128906 30.277344 Z M 58.128906 16.089844 " fill-opacity="1" fill-rule="nonzero"/></g></g><g clip-path="url(#061bafb456)"><g clip-path="url(#a0811416a8)"><path fill="#1e3b8f" d="M 62.601562 16.089844 L 65.398438 16.089844 L 65.398438 27.875 L 62.601562 27.875 Z M 62.601562 16.089844 " fill-opacity="1" fill-rule="nonzero"/></g></g></svg>