<svg xmlns="http://www.w3.org/2000/svg" xmlns:xlink="http://www.w3.org/1999/xlink" width="1280" zoomAndPan="magnify" viewBox="0 0 960 540.000001" height="720" preserveAspectRatio="xMidYMid meet" version="1.0"><defs><g/><clipPath id="072af86f86"><path d="M 457.660156 200.097656 L 481.976562 200.097656 L 481.976562 313.023438 L 457.660156 313.023438 Z M 457.660156 200.097656 " clip-rule="nonzero"/></clipPath><clipPath id="899ea3afac"><path d="M 466.644531 200.097656 L 472.992188 200.097656 C 477.953125 200.097656 481.976562 204.117188 481.976562 209.078125 L 481.976562 304.039062 C 481.976562 309 477.953125 313.019531 472.992188 313.019531 L 466.644531 313.019531 C 461.683594 313.019531 457.660156 309 457.660156 304.039062 L 457.660156 209.078125 C 457.660156 204.117188 461.683594 200.097656 466.644531 200.097656 Z M 466.644531 200.097656 " clip-rule="nonzero"/></clipPath><clipPath id="d711f135ad"><path d="M 498.457031 200.097656 L 523.925781 200.097656 L 523.925781 323.46875 L 498.457031 323.46875 Z M 498.457031 200.097656 " clip-rule="nonzero"/></clipPath><clipPath id="2d9f1b4e42"><path d="M 507.4375 200.097656 L 514.941406 200.097656 C 519.902344 200.097656 523.925781 204.117188 523.925781 209.078125 L 523.925781 314.445312 C 523.925781 319.40625 519.902344 323.429688 514.941406 323.429688 L 507.4375 323.429688 C 502.476562 323.429688 498.457031 319.40625 498.457031 314.445312 L 498.457031 209.078125 C 498.457031 204.117188 502.476562 200.097656 507.4375 200.097656 Z M 507.4375 200.097656 " clip-rule="nonzero"/></clipPath><clipPath id="2c94f20d7a"><path d="M 537.359375 200.097656 L 561.671875 200.097656 L 561.671875 302.671875 L 537.359375 302.671875 Z M 537.359375 200.097656 " clip-rule="nonzero"/></clipPath><clipPath id="f2ce4f3e3f"><path d="M 546.339844 200.097656 L 552.6875 200.097656 C 557.652344 200.097656 561.671875 204.117188 561.671875 209.078125 L 561.671875 293.628906 C 561.671875 298.589844 557.652344 302.613281 552.6875 302.613281 L 546.339844 302.613281 C 541.378906 302.613281 537.359375 298.589844 537.359375 293.628906 L 537.359375 209.078125 C 537.359375 204.117188 541.378906 200.097656 546.339844 200.097656 Z M 546.339844 200.097656 " clip-rule="nonzero"/></clipPath></defs><g fill="#ffffff" fill-opacity="1"><g transform="translate(30.147522, 300.725652)"><g><path d="M 83.4375 -85.84375 C 77.632812 -89.382812 71.832031 -92.015625 66.03125 -93.734375 C 60.238281 -95.453125 55.03125 -96.3125 50.40625 -96.3125 C 44.820312 -96.3125 40.363281 -95.265625 37.03125 -93.171875 C 33.707031 -91.078125 32.046875 -88.097656 32.046875 -84.234375 C 32.046875 -80.796875 33.117188 -77.945312 35.265625 -75.6875 C 37.421875 -73.4375 40.109375 -71.664062 43.328125 -70.375 C 46.546875 -69.09375 51.054688 -67.539062 56.859375 -65.71875 C 64.484375 -63.351562 70.679688 -61.066406 75.453125 -58.859375 C 80.234375 -56.660156 84.3125 -53.382812 87.6875 -49.03125 C 91.070312 -44.6875 92.765625 -38.972656 92.765625 -31.890625 C 92.765625 -25.234375 90.96875 -19.40625 87.375 -14.40625 C 83.78125 -9.414062 78.757812 -5.578125 72.3125 -2.890625 C 65.875 -0.210938 58.519531 1.125 50.25 1.125 C 41.550781 1.125 33.175781 -0.484375 25.125 -3.703125 C 17.070312 -6.921875 10.09375 -11.320312 4.1875 -16.90625 L 12.40625 -33.34375 C 18.09375 -28.082031 24.34375 -23.972656 31.15625 -21.015625 C 37.976562 -18.066406 44.453125 -16.59375 50.578125 -16.59375 C 57.117188 -16.59375 62.269531 -17.851562 66.03125 -20.375 C 69.789062 -22.894531 71.671875 -26.359375 71.671875 -30.765625 C 71.671875 -34.304688 70.566406 -37.203125 68.359375 -39.453125 C 66.160156 -41.710938 63.394531 -43.515625 60.0625 -44.859375 C 56.738281 -46.203125 52.234375 -47.734375 46.546875 -49.453125 C 38.816406 -51.703125 32.613281 -53.898438 27.9375 -56.046875 C 23.269531 -58.191406 19.242188 -61.410156 15.859375 -65.703125 C 12.484375 -70.003906 10.796875 -75.644531 10.796875 -82.625 C 10.796875 -88.957031 12.507812 -94.515625 15.9375 -99.296875 C 19.375 -104.078125 24.207031 -107.78125 30.4375 -110.40625 C 36.664062 -113.039062 43.804688 -114.359375 51.859375 -114.359375 C 58.953125 -114.359375 65.929688 -113.28125 72.796875 -111.125 C 79.671875 -108.976562 85.847656 -106.132812 91.328125 -102.59375 Z M 83.4375 -85.84375 "/></g></g></g><g fill="#ffffff" fill-opacity="1"><g transform="translate(130.320695, 300.725652)"><g><path d="M 50.40625 -86.328125 C 59.101562 -86.328125 66.832031 -84.5 73.59375 -80.84375 C 80.363281 -77.195312 85.628906 -72.097656 89.390625 -65.546875 C 93.148438 -59.003906 95.03125 -51.488281 95.03125 -43 C 95.03125 -34.414062 93.148438 -26.820312 89.390625 -20.21875 C 85.628906 -13.613281 80.363281 -8.484375 73.59375 -4.828125 C 66.832031 -1.179688 59.101562 0.640625 50.40625 0.640625 C 41.601562 0.640625 33.816406 -1.179688 27.046875 -4.828125 C 20.285156 -8.484375 15.023438 -13.613281 11.265625 -20.21875 C 7.515625 -26.820312 5.640625 -34.414062 5.640625 -43 C 5.640625 -51.488281 7.515625 -59.003906 11.265625 -65.546875 C 15.023438 -72.097656 20.285156 -77.195312 27.046875 -80.84375 C 33.816406 -84.5 41.601562 -86.328125 50.40625 -86.328125 Z M 50.40625 -70.546875 C 42.675781 -70.546875 36.367188 -67.941406 31.484375 -62.734375 C 26.597656 -57.523438 24.15625 -50.84375 24.15625 -42.6875 C 24.15625 -34.414062 26.597656 -27.703125 31.484375 -22.546875 C 36.367188 -17.390625 42.675781 -14.8125 50.40625 -14.8125 C 58.144531 -14.8125 64.425781 -17.390625 69.25 -22.546875 C 74.082031 -27.703125 76.5 -34.414062 76.5 -42.6875 C 76.5 -50.84375 74.054688 -57.523438 69.171875 -62.734375 C 64.285156 -67.941406 58.03125 -70.546875 50.40625 -70.546875 Z M 50.40625 -70.546875 "/></g></g></g><g fill="#ffffff" fill-opacity="1"><g transform="translate(230.977099, 300.725652)"><g><path d="M 63.78125 -86.328125 C 73.769531 -86.328125 81.582031 -83.398438 87.21875 -77.546875 C 92.851562 -71.703125 95.671875 -63.625 95.671875 -53.3125 L 95.671875 0 L 77.15625 0 L 77.15625 -48.15625 C 77.15625 -54.601562 75.328125 -59.675781 71.671875 -63.375 C 68.023438 -67.082031 62.976562 -68.9375 56.53125 -68.9375 C 49.65625 -68.832031 44.039062 -66.628906 39.6875 -62.328125 C 35.34375 -58.035156 32.851562 -52.453125 32.21875 -45.578125 L 32.21875 0 L 13.6875 0 L 13.6875 -85.6875 L 32.21875 -85.6875 L 32.21875 -69.25 C 38.007812 -80.632812 48.53125 -86.328125 63.78125 -86.328125 Z M 63.78125 -86.328125 "/></g></g></g><g fill="#ffffff" fill-opacity="1"><g transform="translate(337.753398, 300.725652)"><g><path d="M 72.640625 -85.6875 L 91 -85.6875 L 91 -8.375 C 91 -0.21875 89.171875 6.863281 85.515625 12.875 C 81.867188 18.894531 76.691406 23.539062 69.984375 26.8125 C 63.273438 30.09375 55.460938 31.734375 46.546875 31.734375 C 33.878906 31.734375 22.015625 27.972656 10.953125 20.453125 L 18.84375 7.09375 C 23.03125 10.195312 27.296875 12.523438 31.640625 14.078125 C 35.992188 15.640625 40.691406 16.421875 45.734375 16.421875 C 53.898438 16.421875 60.425781 14.21875 65.3125 9.8125 C 70.195312 5.414062 72.640625 -0.484375 72.640625 -7.890625 L 72.640625 -18.6875 C 69.742188 -13.957031 65.90625 -10.359375 61.125 -7.890625 C 56.34375 -5.421875 50.734375 -4.1875 44.296875 -4.1875 C 36.671875 -4.1875 29.929688 -5.929688 24.078125 -9.421875 C 18.222656 -12.910156 13.6875 -17.769531 10.46875 -24 C 7.25 -30.226562 5.640625 -37.421875 5.640625 -45.578125 C 5.640625 -53.628906 7.25 -60.742188 10.46875 -66.921875 C 13.6875 -73.097656 18.222656 -77.875 24.078125 -81.25 C 29.929688 -84.632812 36.671875 -86.328125 44.296875 -86.328125 C 50.628906 -86.328125 56.210938 -85.066406 61.046875 -82.546875 C 65.878906 -80.023438 69.742188 -76.453125 72.640625 -71.828125 Z M 48 -18.6875 C 55.1875 -18.6875 61.085938 -21.15625 65.703125 -26.09375 C 70.328125 -31.03125 72.640625 -37.363281 72.640625 -45.09375 C 72.640625 -52.820312 70.359375 -59.128906 65.796875 -64.015625 C 61.234375 -68.898438 55.300781 -71.34375 48 -71.34375 C 40.695312 -71.34375 34.734375 -68.898438 30.109375 -64.015625 C 25.492188 -59.128906 23.132812 -52.820312 23.03125 -45.09375 C 23.132812 -37.363281 25.46875 -31.03125 30.03125 -26.09375 C 34.601562 -21.15625 40.59375 -18.6875 48 -18.6875 Z M 48 -18.6875 "/></g></g></g><g fill="#ffffff" fill-opacity="1"><g transform="translate(572.356907, 302.779768)"><g><path d="M 48.96875 -86.328125 C 62.488281 -86.328125 72.601562 -82.515625 79.3125 -74.890625 C 86.03125 -67.265625 89.390625 -56.53125 89.390625 -42.6875 C 89.390625 -41.289062 89.28125 -38.976562 89.0625 -35.75 L 24.328125 -35.75 C 25.828125 -29.09375 28.9375 -23.859375 33.65625 -20.046875 C 38.382812 -16.234375 44.128906 -14.328125 50.890625 -14.328125 C 55.515625 -14.328125 59.921875 -15.1875 64.109375 -16.90625 C 68.296875 -18.625 71.945312 -21.097656 75.0625 -24.328125 L 84.875 -13.84375 C 80.582031 -9.226562 75.425781 -5.660156 69.40625 -3.140625 C 63.394531 -0.617188 56.742188 0.640625 49.453125 0.640625 C 40.753906 0.640625 33.101562 -1.179688 26.5 -4.828125 C 19.894531 -8.484375 14.765625 -13.582031 11.109375 -20.125 C 7.460938 -26.675781 5.640625 -34.195312 5.640625 -42.6875 C 5.640625 -51.164062 7.460938 -58.707031 11.109375 -65.3125 C 14.765625 -71.914062 19.894531 -77.066406 26.5 -80.765625 C 33.101562 -84.472656 40.59375 -86.328125 48.96875 -86.328125 Z M 72.96875 -49.28125 C 72.644531 -56.15625 70.332031 -61.578125 66.03125 -65.546875 C 61.738281 -69.523438 56.101562 -71.515625 49.125 -71.515625 C 42.363281 -71.515625 36.726562 -69.523438 32.21875 -65.546875 C 27.707031 -61.578125 24.96875 -56.15625 24 -49.28125 Z M 72.96875 -49.28125 "/></g></g></g><g fill="#ffffff" fill-opacity="1"><g transform="translate(667.028581, 302.779768)"><g><path d="M 62.171875 -5.46875 C 55.085938 -1.28125 48.054688 0.8125 41.078125 0.8125 C 34.097656 0.8125 28.351562 -1.28125 23.84375 -5.46875 C 19.332031 -9.65625 17.078125 -15.882812 17.078125 -24.15625 L 17.078125 -68.609375 L 5 -68.609375 L 5 -82.46875 L 17.078125 -82.46875 L 17.078125 -105.984375 L 35.4375 -105.984375 L 35.4375 -82.46875 L 60.71875 -82.46875 L 60.71875 -68.609375 L 35.4375 -68.609375 L 35.4375 -27.546875 C 35.4375 -23.242188 36.1875 -20.234375 37.6875 -18.515625 C 39.1875 -16.796875 41.492188 -15.9375 44.609375 -15.9375 C 48.046875 -15.9375 52.34375 -17.175781 57.5 -19.65625 Z M 62.171875 -5.46875 "/></g></g></g><g fill="#ffffff" fill-opacity="1"><g transform="translate(732.558157, 302.779768)"><g><path d="M 32.21875 -68.609375 C 35.113281 -74.410156 39.082031 -78.8125 44.125 -81.8125 C 49.175781 -84.820312 55.082031 -86.328125 61.84375 -86.328125 L 61.84375 -68.609375 C 53.363281 -69.035156 46.492188 -67.046875 41.234375 -62.640625 C 35.972656 -58.242188 32.96875 -52.289062 32.21875 -44.78125 L 32.21875 0 L 13.6875 0 L 13.6875 -85.6875 L 32.21875 -85.6875 Z M 32.21875 -68.609375 "/></g></g></g><g fill="#ffffff" fill-opacity="1"><g transform="translate(795.994664, 302.779768)"><g><path d="M 13.6875 0 L 13.6875 -85.6875 L 32.046875 -85.6875 L 32.046875 0 Z M 22.875 -121.4375 C 25.988281 -121.4375 28.566406 -120.390625 30.609375 -118.296875 C 32.648438 -116.203125 33.671875 -113.492188 33.671875 -110.171875 C 33.671875 -106.941406 32.648438 -104.253906 30.609375 -102.109375 C 28.566406 -99.960938 25.988281 -98.890625 22.875 -98.890625 C 19.757812 -98.890625 17.179688 -99.960938 15.140625 -102.109375 C 13.097656 -104.253906 12.078125 -106.941406 12.078125 -110.171875 C 12.078125 -113.492188 13.097656 -116.203125 15.140625 -118.296875 C 17.179688 -120.390625 19.757812 -121.4375 22.875 -121.4375 Z M 22.875 -121.4375 "/></g></g></g><g fill="#ffffff" fill-opacity="1"><g transform="translate(841.720446, 302.779768)"><g><path d="M 32.53125 -43.96875 L 4.34375 -85.6875 L 25.609375 -85.6875 L 44.78125 -56.375 L 64.265625 -85.6875 L 84.5625 -85.6875 L 57.015625 -43.96875 L 86.484375 0 L 65.234375 0 L 44.78125 -31.40625 L 22.875 0 L 2.25 0 Z M 32.53125 -43.96875 "/></g></g></g><g clip-path="url(#072af86f86)"><g clip-path="url(#899ea3afac)"><path fill="#ffffff" d="M 457.660156 200.097656 L 481.976562 200.097656 L 481.976562 313.023438 L 457.660156 313.023438 Z M 457.660156 200.097656 " fill-opacity="1" fill-rule="nonzero"/></g></g><g clip-path="url(#d711f135ad)"><g clip-path="url(#2d9f1b4e42)"><path fill="#ffffff" d="M 498.457031 200.097656 L 523.925781 200.097656 L 523.925781 323.46875 L 498.457031 323.46875 Z M 498.457031 200.097656 " fill-opacity="1" fill-rule="nonzero"/></g></g><g clip-path="url(#2c94f20d7a)"><g clip-path="url(#f2ce4f3e3f)"><path fill="#ffffff" d="M 537.359375 200.097656 L 561.671875 200.097656 L 561.671875 302.578125 L 537.359375 302.578125 Z M 537.359375 200.097656 " fill-opacity="1" fill-rule="nonzero"/></g></g></svg>